<svg width="43" height="26" viewBox="0 0 43 26" fill="none" xmlns="http://www.w3.org/2000/svg">
<path fill-rule="evenodd" clip-rule="evenodd" d="M26.5216 19.1299H41.6636C42.1679 19.1299 42.5783 19.5272 42.5783 20.0156V22.1081V22.8288V25.3956C42.5783 25.7295 42.2991 26 41.9546 26C41.6101 26 41.3309 25.7295 41.3309 25.3956V23.4332H34.6345C34.2899 23.4332 34.0108 23.1627 34.0108 22.8288C34.0108 22.495 34.2899 22.2245 34.6345 22.2245H41.3309V22.1081V20.3387H26.5216V22.2245H32.0951C32.4396 22.2245 32.7188 22.495 32.7188 22.8288C32.7188 23.1627 32.4396 23.4332 32.0951 23.4332H26.5216V24.54C26.5216 25.1489 26.0089 25.6442 25.3785 25.6442H13.2608C5.94882 25.6442 0 19.8922 0 12.8221C0 5.75199 5.94882 0 13.2608 0C19.1018 0 24.0725 3.67052 25.8361 8.75128H28.091C28.6337 8.75128 29.075 9.13581 29.1892 9.70825L30.0429 14.0052C30.1157 14.367 30.0412 14.702 29.8327 14.9471C29.6326 15.1824 29.3275 15.312 28.9736 15.312H26.5216V19.1299ZM28.7921 14.1033L27.9688 9.9599H26.1882C26.4061 10.8805 26.5216 11.8386 26.5216 12.8221V14.1033H28.7921ZM1.26352 13.4265H3.5358L3.61746 13.427C3.63285 13.4271 3.64898 13.4273 3.66578 13.4273C3.8341 13.4273 4.06445 13.4122 4.25514 13.2245C4.46204 13.0209 4.45589 12.7793 4.45248 12.6495C4.4514 12.6075 4.45032 12.5641 4.45248 12.507C4.51344 10.8882 5.04583 9.33025 5.9922 8.00148C6.18788 7.72678 6.11661 7.35039 5.83312 7.16078C5.5497 6.97117 5.16109 7.04023 4.9655 7.31493C3.93181 8.76643 3.33023 10.4569 3.21829 12.2177H1.26352C1.57919 6.29357 6.50863 1.52861 12.6371 1.22418V3.11355C10.6727 3.22918 8.80778 3.89099 7.2288 5.03539C6.95296 5.23523 6.89658 5.61404 7.1029 5.88132C7.22539 6.04007 7.41292 6.12371 7.60286 6.12371C7.73284 6.12371 7.8639 6.08455 7.97592 6.00332C9.41743 4.9586 11.1313 4.37302 12.9329 4.30976C12.9921 4.30765 13.0389 4.30866 13.0759 4.30945L13.0791 4.30952L13.0821 4.30957C13.218 4.31193 13.467 4.31626 13.6755 4.11669C13.8884 3.91326 13.8863 3.67147 13.8848 3.49485V3.49477L13.8845 1.22418C20.2199 1.53901 25.2741 6.62065 25.2741 12.822V19.7341V21.3362H13.7393C13.1315 21.3362 12.6371 21.8149 12.6371 22.4032V24.4199C6.50871 24.1155 1.57928 19.3506 1.26352 13.4265ZM13.8845 24.4355H25.2742V22.8288V22.545H13.8845V24.4355Z" fill="black"/>
<path fill-rule="evenodd" clip-rule="evenodd" d="M19.2708 19.9333H13.3071C9.39347 19.9333 6.20947 17.0169 6.20947 13.4322C6.20947 9.84873 9.39347 6.93333 13.3071 6.93333C17.2194 6.93333 20.4022 9.8488 20.4022 13.4322V18.8937C20.4022 19.4669 19.8947 19.9333 19.2708 19.9333ZM19.1411 13.4322C19.1411 10.487 16.5239 8.09082 13.3071 8.09082C10.0889 8.09082 7.47059 10.487 7.47059 13.4322C7.47059 16.3787 10.0889 18.7759 13.3071 18.7759H19.1411V13.4322Z" fill="black"/>
<path fill-rule="evenodd" clip-rule="evenodd" d="M15.5728 15.6H11.0382C10.332 15.6 9.75732 15.1112 9.75732 14.5103V12.354C9.75732 11.7545 10.332 11.2667 11.0382 11.2667H15.5728C16.2791 11.2667 16.8537 11.7545 16.8537 12.354V14.5103C16.8537 15.1112 16.2791 15.6 15.5728 15.6ZM15.429 12.4773H11.182V14.3894H15.429V12.4773Z" fill="black"/>
</svg>
